<?xml version="1.0"?>
<!-- Generated by SVGo -->
<svg width="261.651mm" height="116.750mm"
     viewBox="0.000 0.000 261.651 116.750"
     xmlns="http://www.w3.org/2000/svg" 
     xmlns:xlink="http://www.w3.org/1999/xlink">
<polygon points="256.651,111.750 5.000,111.750 5.000,5.000 256.651,5.000" style="fill:none;stroke-width:0.050000mm;stroke:black"/>
<polygon points="145.256,93.225 145.256,94.225 144.456,94.225 144.456,97.324 145.256,97.324 145.256,97.925 143.731,97.925 143.731,94.695 142.006,94.695 142.006,93.774 138.706,93.774 138.706,94.695 136.981,94.695 136.981,97.925 136.156,97.925 136.156,100.725 136.981,100.725 136.981,106.994 138.706,106.994 138.706,107.975 142.006,107.975 142.006,106.994 143.731,106.994 143.731,102.524 145.256,102.524 145.256,103.125 144.456,103.125 144.456,106.225 145.256,106.225 145.256,107.225 159.256,107.225 159.256,106.225 160.056,106.225 160.056,103.125 159.256,103.125 159.256,102.524 160.781,102.524 160.781,106.994 162.506,106.994 162.506,107.975 165.806,107.975 165.806,106.994 167.531,106.994 167.531,100.725 168.356,100.725 168.356,97.925 167.531,97.925 167.531,94.695 165.806,94.695 165.806,93.774 162.506,93.774 162.506,94.695 160.781,94.695 160.781,97.925 159.256,97.925 159.256,97.324 160.056,97.324 160.056,94.225 159.256,94.225 159.256,93.225" style="fill:none;stroke-width:0.050000mm;stroke:black"/>
<polygon points="238.125,93.225 238.125,94.225 237.325,94.225 237.325,97.324 238.125,97.324 238.125,103.125 237.325,103.125 237.325,106.225 238.125,106.225 238.125,107.225 252.125,107.225 252.125,106.225 252.925,106.225 252.925,103.125 252.125,103.125 252.125,97.324 252.925,97.324 252.925,94.225 252.125,94.225 252.125,93.225" style="fill:none;stroke-width:0.050000mm;stroke:black"/>
<polygon points="219.075,93.225 219.075,94.225 218.275,94.225 218.275,97.324 219.075,97.324 219.075,103.125 218.275,103.125 218.275,106.225 219.075,106.225 219.075,107.225 233.075,107.225 233.075,106.225 233.875,106.225 233.875,103.125 233.075,103.125 233.075,97.324 233.875,97.324 233.875,94.225 233.075,94.225 233.075,93.225" style="fill:none;stroke-width:0.050000mm;stroke:black"/>
<polygon points="200.025,93.225 200.025,94.225 199.225,94.225 199.225,97.324 200.025,97.324 200.025,103.125 199.225,103.125 199.225,106.225 200.025,106.225 200.025,107.225 214.025,107.225 214.025,106.225 214.825,106.225 214.825,103.125 214.025,103.125 214.025,97.324 214.825,97.324 214.825,94.225 214.025,94.225 214.025,93.225" style="fill:none;stroke-width:0.050000mm;stroke:black"/>
<polygon points="178.593,93.225 178.593,94.225 177.793,94.225 177.793,97.324 178.593,97.324 178.593,103.125 177.793,103.125 177.793,106.225 178.593,106.225 178.593,107.225 192.593,107.225 192.593,106.225 193.393,106.225 193.393,103.125 192.593,103.125 192.593,97.324 193.393,97.324 193.393,94.225 192.593,94.225 192.593,93.225" style="fill:none;stroke-width:0.050000mm;stroke:black"/>
<polygon points="111.918,93.225 111.918,94.225 111.118,94.225 111.118,97.324 111.918,97.324 111.918,103.125 111.118,103.125 111.118,106.225 111.918,106.225 111.918,107.225 125.918,107.225 125.918,106.225 126.718,106.225 126.718,103.125 125.918,103.125 125.918,97.324 126.718,97.324 126.718,94.225 125.918,94.225 125.918,93.225" style="fill:none;stroke-width:0.050000mm;stroke:black"/>
<polygon points="88.106,93.225 88.106,94.225 87.306,94.225 87.306,97.324 88.106,97.324 88.106,103.125 87.306,103.125 87.306,106.225 88.106,106.225 88.106,107.225 102.106,107.225 102.106,106.225 102.906,106.225 102.906,103.125 102.106,103.125 102.106,97.324 102.906,97.324 102.906,94.225 102.106,94.225 102.106,93.225" style="fill:none;stroke-width:0.050000mm;stroke:black"/>
<polygon points="66.675,93.225 66.675,94.225 65.875,94.225 65.875,97.324 66.675,97.324 66.675,103.125 65.875,103.125 65.875,106.225 66.675,106.225 66.675,107.225 80.675,107.225 80.675,106.225 81.475,106.225 81.475,103.125 80.675,103.125 80.675,97.324 81.475,97.324 81.475,94.225 80.675,94.225 80.675,93.225" style="fill:none;stroke-width:0.050000mm;stroke:black"/>
<polygon points="47.625,93.225 47.625,94.225 46.825,94.225 46.825,97.324 47.625,97.324 47.625,103.125 46.825,103.125 46.825,106.225 47.625,106.225 47.625,107.225 61.625,107.225 61.625,106.225 62.425,106.225 62.425,103.125 61.625,103.125 61.625,97.324 62.425,97.324 62.425,94.225 61.625,94.225 61.625,93.225" style="fill:none;stroke-width:0.050000mm;stroke:black"/>
<polygon points="28.575,93.225 28.575,94.225 27.775,94.225 27.775,97.324 28.575,97.324 28.575,103.125 27.775,103.125 27.775,106.225 28.575,106.225 28.575,107.225 42.575,107.225 42.575,106.225 43.375,106.225 43.375,103.125 42.575,103.125 42.575,97.324 43.375,97.324 43.375,94.225 42.575,94.225 42.575,93.225" style="fill:none;stroke-width:0.050000mm;stroke:black"/>
<polygon points="9.524,93.225 9.524,94.225 8.724,94.225 8.724,97.324 9.524,97.324 9.524,103.125 8.724,103.125 8.724,106.225 9.524,106.225 9.524,107.225 23.525,107.225 23.525,106.225 24.325,106.225 24.325,103.125 23.525,103.125 23.525,97.324 24.325,97.324 24.325,94.225 23.525,94.225 23.525,93.225" style="fill:none;stroke-width:0.050000mm;stroke:black"/>
<polygon points="238.125,74.175 238.125,75.175 237.325,75.175 237.325,78.274 238.125,78.274 238.125,84.075 237.325,84.075 237.325,87.175 238.125,87.175 238.125,88.175 252.125,88.175 252.125,87.175 252.925,87.175 252.925,84.075 252.125,84.075 252.125,78.274 252.925,78.274 252.925,75.175 252.125,75.175 252.125,74.175" style="fill:none;stroke-width:0.050000mm;stroke:black"/>
<polygon points="219.075,74.175 219.075,75.175 218.275,75.175 218.275,78.274 219.075,78.274 219.075,84.075 218.275,84.075 218.275,87.175 219.075,87.175 219.075,88.175 233.075,88.175 233.075,87.175 233.875,87.175 233.875,84.075 233.075,84.075 233.075,78.274 233.875,78.274 233.875,75.175 233.075,75.175 233.075,74.175" style="fill:none;stroke-width:0.050000mm;stroke:black"/>
<polygon points="200.025,74.175 200.025,75.175 199.225,75.175 199.225,78.274 200.025,78.274 200.025,84.075 199.225,84.075 199.225,87.175 200.025,87.175 200.025,88.175 214.025,88.175 214.025,87.175 214.825,87.175 214.825,84.075 214.025,84.075 214.025,78.274 214.825,78.274 214.825,75.175 214.025,75.175 214.025,74.175" style="fill:none;stroke-width:0.050000mm;stroke:black"/>
<polygon points="180.975,74.175 180.975,75.175 180.175,75.175 180.175,78.274 180.975,78.274 180.975,84.075 180.175,84.075 180.175,87.175 180.975,87.175 180.975,88.175 194.975,88.175 194.975,87.175 195.775,87.175 195.775,84.075 194.975,84.075 194.975,78.274 195.775,78.274 195.775,75.175 194.975,75.175 194.975,74.175" style="fill:none;stroke-width:0.050000mm;stroke:black"/>
<polygon points="161.925,74.175 161.925,75.175 161.125,75.175 161.125,78.274 161.925,78.274 161.925,84.075 161.125,84.075 161.125,87.175 161.925,87.175 161.925,88.175 175.925,88.175 175.925,87.175 176.725,87.175 176.725,84.075 175.925,84.075 175.925,78.274 176.725,78.274 176.725,75.175 175.925,75.175 175.925,74.175" style="fill:none;stroke-width:0.050000mm;stroke:black"/>
<polygon points="142.875,74.175 142.875,75.175 142.075,75.175 142.075,78.274 142.875,78.274 142.875,84.075 142.075,84.075 142.075,87.175 142.875,87.175 142.875,88.175 156.875,88.175 156.875,87.175 157.675,87.175 157.675,84.075 156.875,84.075 156.875,78.274 157.675,78.274 157.675,75.175 156.875,75.175 156.875,74.175" style="fill:none;stroke-width:0.050000mm;stroke:black"/>
<polygon points="123.824,74.175 123.824,75.175 123.024,75.175 123.024,78.274 123.824,78.274 123.824,84.075 123.024,84.075 123.024,87.175 123.824,87.175 123.824,88.175 137.825,88.175 137.825,87.175 138.625,87.175 138.625,84.075 137.825,84.075 137.825,78.274 138.625,78.274 138.625,75.175 137.825,75.175 137.825,74.175" style="fill:none;stroke-width:0.050000mm;stroke:black"/>
<polygon points="104.774,74.175 104.774,75.175 103.975,75.175 103.975,78.274 104.774,78.274 104.774,84.075 103.975,84.075 103.975,87.175 104.774,87.175 104.774,88.175 118.774,88.175 118.774,87.175 119.574,87.175 119.574,84.075 118.774,84.075 118.774,78.274 119.574,78.274 119.574,75.175 118.774,75.175 118.774,74.175" style="fill:none;stroke-width:0.050000mm;stroke:black"/>
<polygon points="85.725,74.175 85.725,75.175 84.925,75.175 84.925,78.274 85.725,78.274 85.725,84.075 84.925,84.075 84.925,87.175 85.725,87.175 85.725,88.175 99.725,88.175 99.725,87.175 100.524,87.175 100.524,84.075 99.725,84.075 99.725,78.274 100.524,78.274 100.524,75.175 99.725,75.175 99.725,74.175" style="fill:none;stroke-width:0.050000mm;stroke:black"/>
<polygon points="66.675,74.175 66.675,75.175 65.875,75.175 65.875,78.274 66.675,78.274 66.675,84.075 65.875,84.075 65.875,87.175 66.675,87.175 66.675,88.175 80.675,88.175 80.675,87.175 81.475,87.175 81.475,84.075 80.675,84.075 80.675,78.274 81.475,78.274 81.475,75.175 80.675,75.175 80.675,74.175" style="fill:none;stroke-width:0.050000mm;stroke:black"/>
<polygon points="47.625,74.175 47.625,75.175 46.825,75.175 46.825,78.274 47.625,78.274 47.625,84.075 46.825,84.075 46.825,87.175 47.625,87.175 47.625,88.175 61.625,88.175 61.625,87.175 62.425,87.175 62.425,84.075 61.625,84.075 61.625,78.274 62.425,78.274 62.425,75.175 61.625,75.175 61.625,74.175" style="fill:none;stroke-width:0.050000mm;stroke:black"/>
<polygon points="28.575,74.175 28.575,75.175 27.775,75.175 27.775,78.274 28.575,78.274 28.575,84.075 27.775,84.075 27.775,87.175 28.575,87.175 28.575,88.175 42.575,88.175 42.575,87.175 43.375,87.175 43.375,84.075 42.575,84.075 42.575,78.274 43.375,78.274 43.375,75.175 42.575,75.175 42.575,74.175" style="fill:none;stroke-width:0.050000mm;stroke:black"/>
<polygon points="9.524,74.175 9.524,75.175 8.724,75.175 8.724,78.274 9.524,78.274 9.524,84.075 8.724,84.075 8.724,87.175 9.524,87.175 9.524,88.175 23.525,88.175 23.525,87.175 24.325,87.175 24.325,84.075 23.525,84.075 23.525,78.274 24.325,78.274 24.325,75.175 23.525,75.175 23.525,74.175" style="fill:none;stroke-width:0.050000mm;stroke:black"/>
<polygon points="238.125,55.125 238.125,56.125 237.325,56.125 237.325,59.225 238.125,59.225 238.125,65.025 237.325,65.025 237.325,68.125 238.125,68.125 238.125,69.125 252.125,69.125 252.125,68.125 252.925,68.125 252.925,65.025 252.125,65.025 252.125,59.225 252.925,59.225 252.925,56.125 252.125,56.125 252.125,55.125" style="fill:none;stroke-width:0.050000mm;stroke:black"/>
<polygon points="219.075,55.125 219.075,56.125 218.275,56.125 218.275,59.225 219.075,59.225 219.075,65.025 218.275,65.025 218.275,68.125 219.075,68.125 219.075,69.125 233.075,69.125 233.075,68.125 233.875,68.125 233.875,65.025 233.075,65.025 233.075,59.225 233.875,59.225 233.875,56.125 233.075,56.125 233.075,55.125" style="fill:none;stroke-width:0.050000mm;stroke:black"/>
<polygon points="200.025,55.125 200.025,56.125 199.225,56.125 199.225,59.225 200.025,59.225 200.025,65.025 199.225,65.025 199.225,68.125 200.025,68.125 200.025,69.125 214.025,69.125 214.025,68.125 214.825,68.125 214.825,65.025 214.025,65.025 214.025,59.225 214.825,59.225 214.825,56.125 214.025,56.125 214.025,55.125" style="fill:none;stroke-width:0.050000mm;stroke:black"/>
<polygon points="180.975,55.125 180.975,56.125 180.175,56.125 180.175,59.225 180.975,59.225 180.975,65.025 180.175,65.025 180.175,68.125 180.975,68.125 180.975,69.125 194.975,69.125 194.975,68.125 195.775,68.125 195.775,65.025 194.975,65.025 194.975,59.225 195.775,59.225 195.775,56.125 194.975,56.125 194.975,55.125" style="fill:none;stroke-width:0.050000mm;stroke:black"/>
<polygon points="161.925,55.125 161.925,56.125 161.125,56.125 161.125,59.225 161.925,59.225 161.925,65.025 161.125,65.025 161.125,68.125 161.925,68.125 161.925,69.125 175.925,69.125 175.925,68.125 176.725,68.125 176.725,65.025 175.925,65.025 175.925,59.225 176.725,59.225 176.725,56.125 175.925,56.125 175.925,55.125" style="fill:none;stroke-width:0.050000mm;stroke:black"/>
<polygon points="142.875,55.125 142.875,56.125 142.075,56.125 142.075,59.225 142.875,59.225 142.875,65.025 142.075,65.025 142.075,68.125 142.875,68.125 142.875,69.125 156.875,69.125 156.875,68.125 157.675,68.125 157.675,65.025 156.875,65.025 156.875,59.225 157.675,59.225 157.675,56.125 156.875,56.125 156.875,55.125" style="fill:none;stroke-width:0.050000mm;stroke:black"/>
<polygon points="123.824,55.125 123.824,56.125 123.024,56.125 123.024,59.225 123.824,59.225 123.824,65.025 123.024,65.025 123.024,68.125 123.824,68.125 123.824,69.125 137.825,69.125 137.825,68.125 138.625,68.125 138.625,65.025 137.825,65.025 137.825,59.225 138.625,59.225 138.625,56.125 137.825,56.125 137.825,55.125" style="fill:none;stroke-width:0.050000mm;stroke:black"/>
<polygon points="104.774,55.125 104.774,56.125 103.975,56.125 103.975,59.225 104.774,59.225 104.774,65.025 103.975,65.025 103.975,68.125 104.774,68.125 104.774,69.125 118.774,69.125 118.774,68.125 119.574,68.125 119.574,65.025 118.774,65.025 118.774,59.225 119.574,59.225 119.574,56.125 118.774,56.125 118.774,55.125" style="fill:none;stroke-width:0.050000mm;stroke:black"/>
<polygon points="85.725,55.125 85.725,56.125 84.925,56.125 84.925,59.225 85.725,59.225 85.725,65.025 84.925,65.025 84.925,68.125 85.725,68.125 85.725,69.125 99.725,69.125 99.725,68.125 100.524,68.125 100.524,65.025 99.725,65.025 99.725,59.225 100.524,59.225 100.524,56.125 99.725,56.125 99.725,55.125" style="fill:none;stroke-width:0.050000mm;stroke:black"/>
<polygon points="66.675,55.125 66.675,56.125 65.875,56.125 65.875,59.225 66.675,59.225 66.675,65.025 65.875,65.025 65.875,68.125 66.675,68.125 66.675,69.125 80.675,69.125 80.675,68.125 81.475,68.125 81.475,65.025 80.675,65.025 80.675,59.225 81.475,59.225 81.475,56.125 80.675,56.125 80.675,55.125" style="fill:none;stroke-width:0.050000mm;stroke:black"/>
<polygon points="47.625,55.125 47.625,56.125 46.825,56.125 46.825,59.225 47.625,59.225 47.625,65.025 46.825,65.025 46.825,68.125 47.625,68.125 47.625,69.125 61.625,69.125 61.625,68.125 62.425,68.125 62.425,65.025 61.625,65.025 61.625,59.225 62.425,59.225 62.425,56.125 61.625,56.125 61.625,55.125" style="fill:none;stroke-width:0.050000mm;stroke:black"/>
<polygon points="28.575,55.125 28.575,56.125 27.775,56.125 27.775,59.225 28.575,59.225 28.575,65.025 27.775,65.025 27.775,68.125 28.575,68.125 28.575,69.125 42.575,69.125 42.575,68.125 43.375,68.125 43.375,65.025 42.575,65.025 42.575,59.225 43.375,59.225 43.375,56.125 42.575,56.125 42.575,55.125" style="fill:none;stroke-width:0.050000mm;stroke:black"/>
<polygon points="9.524,55.125 9.524,56.125 8.724,56.125 8.724,59.225 9.524,59.225 9.524,65.025 8.724,65.025 8.724,68.125 9.524,68.125 9.524,69.125 23.525,69.125 23.525,68.125 24.325,68.125 24.325,65.025 23.525,65.025 23.525,59.225 24.325,59.225 24.325,56.125 23.525,56.125 23.525,55.125" style="fill:none;stroke-width:0.050000mm;stroke:black"/>
<polygon points="238.125,36.075 238.125,37.075 237.325,37.075 237.325,40.175 238.125,40.175 238.125,45.975 237.325,45.975 237.325,49.075 238.125,49.075 238.125,50.075 252.125,50.075 252.125,49.075 252.925,49.075 252.925,45.975 252.125,45.975 252.125,40.175 252.925,40.175 252.925,37.075 252.125,37.075 252.125,36.075" style="fill:none;stroke-width:0.050000mm;stroke:black"/>
<polygon points="219.075,36.075 219.075,37.075 218.275,37.075 218.275,40.175 219.075,40.175 219.075,45.975 218.275,45.975 218.275,49.075 219.075,49.075 219.075,50.075 233.075,50.075 233.075,49.075 233.875,49.075 233.875,45.975 233.075,45.975 233.075,40.175 233.875,40.175 233.875,37.075 233.075,37.075 233.075,36.075" style="fill:none;stroke-width:0.050000mm;stroke:black"/>
<polygon points="200.025,36.075 200.025,37.075 199.225,37.075 199.225,40.175 200.025,40.175 200.025,45.975 199.225,45.975 199.225,49.075 200.025,49.075 200.025,50.075 214.025,50.075 214.025,49.075 214.825,49.075 214.825,45.975 214.025,45.975 214.025,40.175 214.825,40.175 214.825,37.075 214.025,37.075 214.025,36.075" style="fill:none;stroke-width:0.050000mm;stroke:black"/>
<polygon points="180.975,36.075 180.975,37.075 180.175,37.075 180.175,40.175 180.975,40.175 180.975,45.975 180.175,45.975 180.175,49.075 180.975,49.075 180.975,50.075 194.975,50.075 194.975,49.075 195.775,49.075 195.775,45.975 194.975,45.975 194.975,40.175 195.775,40.175 195.775,37.075 194.975,37.075 194.975,36.075" style="fill:none;stroke-width:0.050000mm;stroke:black"/>
<polygon points="161.925,36.075 161.925,37.075 161.125,37.075 161.125,40.175 161.925,40.175 161.925,45.975 161.125,45.975 161.125,49.075 161.925,49.075 161.925,50.075 175.925,50.075 175.925,49.075 176.725,49.075 176.725,45.975 175.925,45.975 175.925,40.175 176.725,40.175 176.725,37.075 175.925,37.075 175.925,36.075" style="fill:none;stroke-width:0.050000mm;stroke:black"/>
<polygon points="142.875,36.075 142.875,37.075 142.075,37.075 142.075,40.175 142.875,40.175 142.875,45.975 142.075,45.975 142.075,49.075 142.875,49.075 142.875,50.075 156.875,50.075 156.875,49.075 157.675,49.075 157.675,45.975 156.875,45.975 156.875,40.175 157.675,40.175 157.675,37.075 156.875,37.075 156.875,36.075" style="fill:none;stroke-width:0.050000mm;stroke:black"/>
<polygon points="123.824,36.075 123.824,37.075 123.024,37.075 123.024,40.175 123.824,40.175 123.824,45.975 123.024,45.975 123.024,49.075 123.824,49.075 123.824,50.075 137.825,50.075 137.825,49.075 138.625,49.075 138.625,45.975 137.825,45.975 137.825,40.175 138.625,40.175 138.625,37.075 137.825,37.075 137.825,36.075" style="fill:none;stroke-width:0.050000mm;stroke:black"/>
<polygon points="104.774,36.075 104.774,37.075 103.975,37.075 103.975,40.175 104.774,40.175 104.774,45.975 103.975,45.975 103.975,49.075 104.774,49.075 104.774,50.075 118.774,50.075 118.774,49.075 119.574,49.075 119.574,45.975 118.774,45.975 118.774,40.175 119.574,40.175 119.574,37.075 118.774,37.075 118.774,36.075" style="fill:none;stroke-width:0.050000mm;stroke:black"/>
<polygon points="85.725,36.075 85.725,37.075 84.925,37.075 84.925,40.175 85.725,40.175 85.725,45.975 84.925,45.975 84.925,49.075 85.725,49.075 85.725,50.075 99.725,50.075 99.725,49.075 100.524,49.075 100.524,45.975 99.725,45.975 99.725,40.175 100.524,40.175 100.524,37.075 99.725,37.075 99.725,36.075" style="fill:none;stroke-width:0.050000mm;stroke:black"/>
<polygon points="66.675,36.075 66.675,37.075 65.875,37.075 65.875,40.175 66.675,40.175 66.675,45.975 65.875,45.975 65.875,49.075 66.675,49.075 66.675,50.075 80.675,50.075 80.675,49.075 81.475,49.075 81.475,45.975 80.675,45.975 80.675,40.175 81.475,40.175 81.475,37.075 80.675,37.075 80.675,36.075" style="fill:none;stroke-width:0.050000mm;stroke:black"/>
<polygon points="47.625,36.075 47.625,37.075 46.825,37.075 46.825,40.175 47.625,40.175 47.625,45.975 46.825,45.975 46.825,49.075 47.625,49.075 47.625,50.075 61.625,50.075 61.625,49.075 62.425,49.075 62.425,45.975 61.625,45.975 61.625,40.175 62.425,40.175 62.425,37.075 61.625,37.075 61.625,36.075" style="fill:none;stroke-width:0.050000mm;stroke:black"/>
<polygon points="28.575,36.075 28.575,37.075 27.775,37.075 27.775,40.175 28.575,40.175 28.575,45.975 27.775,45.975 27.775,49.075 28.575,49.075 28.575,50.075 42.575,50.075 42.575,49.075 43.375,49.075 43.375,45.975 42.575,45.975 42.575,40.175 43.375,40.175 43.375,37.075 42.575,37.075 42.575,36.075" style="fill:none;stroke-width:0.050000mm;stroke:black"/>
<polygon points="9.524,36.075 9.524,37.075 8.724,37.075 8.724,40.175 9.524,40.175 9.524,45.975 8.724,45.975 8.724,49.075 9.524,49.075 9.524,50.075 23.525,50.075 23.525,49.075 24.325,49.075 24.325,45.975 23.525,45.975 23.525,40.175 24.325,40.175 24.325,37.075 23.525,37.075 23.525,36.075" style="fill:none;stroke-width:0.050000mm;stroke:black"/>
<polygon points="238.125,17.025 238.125,18.025 237.325,18.025 237.325,21.125 238.125,21.125 238.125,26.924 237.325,26.924 237.325,30.025 238.125,30.025 238.125,31.025 252.125,31.025 252.125,30.025 252.925,30.025 252.925,26.924 252.125,26.924 252.125,21.125 252.925,21.125 252.925,18.025 252.125,18.025 252.125,17.025" style="fill:none;stroke-width:0.050000mm;stroke:black"/>
<polygon points="219.075,17.025 219.075,18.025 218.275,18.025 218.275,21.125 219.075,21.125 219.075,26.924 218.275,26.924 218.275,30.025 219.075,30.025 219.075,31.025 233.075,31.025 233.075,30.025 233.875,30.025 233.875,26.924 233.075,26.924 233.075,21.125 233.875,21.125 233.875,18.025 233.075,18.025 233.075,17.025" style="fill:none;stroke-width:0.050000mm;stroke:black"/>
<polygon points="200.025,17.025 200.025,18.025 199.225,18.025 199.225,21.125 200.025,21.125 200.025,26.924 199.225,26.924 199.225,30.025 200.025,30.025 200.025,31.025 214.025,31.025 214.025,30.025 214.825,30.025 214.825,26.924 214.025,26.924 214.025,21.125 214.825,21.125 214.825,18.025 214.025,18.025 214.025,17.025" style="fill:none;stroke-width:0.050000mm;stroke:black"/>
<polygon points="180.975,17.025 180.975,18.025 180.175,18.025 180.175,21.125 180.975,21.125 180.975,26.924 180.175,26.924 180.175,30.025 180.975,30.025 180.975,31.025 194.975,31.025 194.975,30.025 195.775,30.025 195.775,26.924 194.975,26.924 194.975,21.125 195.775,21.125 195.775,18.025 194.975,18.025 194.975,17.025" style="fill:none;stroke-width:0.050000mm;stroke:black"/>
<polygon points="161.925,17.025 161.925,18.025 161.125,18.025 161.125,21.125 161.925,21.125 161.925,26.924 161.125,26.924 161.125,30.025 161.925,30.025 161.925,31.025 175.925,31.025 175.925,30.025 176.725,30.025 176.725,26.924 175.925,26.924 175.925,21.125 176.725,21.125 176.725,18.025 175.925,18.025 175.925,17.025" style="fill:none;stroke-width:0.050000mm;stroke:black"/>
<polygon points="142.875,17.025 142.875,18.025 142.075,18.025 142.075,21.125 142.875,21.125 142.875,26.924 142.075,26.924 142.075,30.025 142.875,30.025 142.875,31.025 156.875,31.025 156.875,30.025 157.675,30.025 157.675,26.924 156.875,26.924 156.875,21.125 157.675,21.125 157.675,18.025 156.875,18.025 156.875,17.025" style="fill:none;stroke-width:0.050000mm;stroke:black"/>
<polygon points="123.824,17.025 123.824,18.025 123.024,18.025 123.024,21.125 123.824,21.125 123.824,26.924 123.024,26.924 123.024,30.025 123.824,30.025 123.824,31.025 137.825,31.025 137.825,30.025 138.625,30.025 138.625,26.924 137.825,26.924 137.825,21.125 138.625,21.125 138.625,18.025 137.825,18.025 137.825,17.025" style="fill:none;stroke-width:0.050000mm;stroke:black"/>
<polygon points="104.774,17.025 104.774,18.025 103.975,18.025 103.975,21.125 104.774,21.125 104.774,26.924 103.975,26.924 103.975,30.025 104.774,30.025 104.774,31.025 118.774,31.025 118.774,30.025 119.574,30.025 119.574,26.924 118.774,26.924 118.774,21.125 119.574,21.125 119.574,18.025 118.774,18.025 118.774,17.025" style="fill:none;stroke-width:0.050000mm;stroke:black"/>
<polygon points="85.725,17.025 85.725,18.025 84.925,18.025 84.925,21.125 85.725,21.125 85.725,26.924 84.925,26.924 84.925,30.025 85.725,30.025 85.725,31.025 99.725,31.025 99.725,30.025 100.524,30.025 100.524,26.924 99.725,26.924 99.725,21.125 100.524,21.125 100.524,18.025 99.725,18.025 99.725,17.025" style="fill:none;stroke-width:0.050000mm;stroke:black"/>
<polygon points="66.675,17.025 66.675,18.025 65.875,18.025 65.875,21.125 66.675,21.125 66.675,26.924 65.875,26.924 65.875,30.025 66.675,30.025 66.675,31.025 80.675,31.025 80.675,30.025 81.475,30.025 81.475,26.924 80.675,26.924 80.675,21.125 81.475,21.125 81.475,18.025 80.675,18.025 80.675,17.025" style="fill:none;stroke-width:0.050000mm;stroke:black"/>
<polygon points="47.625,17.025 47.625,18.025 46.825,18.025 46.825,21.125 47.625,21.125 47.625,26.924 46.825,26.924 46.825,30.025 47.625,30.025 47.625,31.025 61.625,31.025 61.625,30.025 62.425,30.025 62.425,26.924 61.625,26.924 61.625,21.125 62.425,21.125 62.425,18.025 61.625,18.025 61.625,17.025" style="fill:none;stroke-width:0.050000mm;stroke:black"/>
<polygon points="28.575,17.025 28.575,18.025 27.775,18.025 27.775,21.125 28.575,21.125 28.575,26.924 27.775,26.924 27.775,30.025 28.575,30.025 28.575,31.025 42.575,31.025 42.575,30.025 43.375,30.025 43.375,26.924 42.575,26.924 42.575,21.125 43.375,21.125 43.375,18.025 42.575,18.025 42.575,17.025" style="fill:none;stroke-width:0.050000mm;stroke:black"/>
<polygon points="9.524,17.025 9.524,18.025 8.724,18.025 8.724,21.125 9.524,21.125 9.524,26.924 8.724,26.924 8.724,30.025 9.524,30.025 9.524,31.025 23.525,31.025 23.525,30.025 24.325,30.025 24.325,26.924 23.525,26.924 23.525,21.125 24.325,21.125 24.325,18.025 23.525,18.025 23.525,17.025" style="fill:none;stroke-width:0.050000mm;stroke:black"/>
</svg>
